<svg width="532" height="167" viewBox="0 0 532 167" fill="none" xmlns="http://www.w3.org/2000/svg">
<g filter="url(#filter0_d_1064_13)">
<path d="M176.622 55.5877H187.704V79.3588L194.932 78.5557L203.926 55.5877H216.695L204.81 83.1332L217.016 111H204.247L195.092 89.2366L187.704 90.0397V111H176.622V55.5877ZM224.226 55.5877H259.401V66.1883H235.148V78.5557H254.582V88.9154H235.148V100.399H259.401V111H224.226V55.5877ZM262.19 55.5877H302.344V66.2686H287.888V111H276.806V66.2686H262.19V55.5877ZM320.933 88.1123C308.646 84.5788 303.988 80.4028 303.988 70.9265C303.988 60.3258 311.537 54.624 323.743 54.624C329.927 54.624 340.608 56.7923 340.608 56.7923L339.725 66.6701C339.725 66.6701 328.401 65.3852 323.743 65.3852C317.801 65.3852 314.99 67.152 314.99 70.7658C314.99 74.2191 317.158 75.504 326.313 78.3951C338.118 82.1695 341.732 85.4622 341.732 95.0991C341.732 106.422 333.621 111.964 322.298 111.964C316.194 111.964 305.433 109.715 305.433 109.715L306.558 99.8372C306.558 99.8372 316.516 101.202 322.218 101.202C328.16 101.202 330.73 99.5963 330.73 95.34C330.73 91.9671 328.803 90.3609 320.933 88.1123ZM347.777 111V97.6689H359.342V111H347.777ZM388.176 111.964C371.311 111.964 367.296 102.568 367.296 83.2938C367.296 62.4138 372.757 54.624 388.176 54.624C395.002 54.624 404.157 56.9529 404.157 56.9529L403.836 66.6701C403.836 66.6701 394.119 65.5458 389.782 65.5458C381.35 65.5458 378.7 68.7582 378.7 83.2938C378.7 97.0265 380.627 101.042 390.103 101.042C394.119 101.042 403.836 99.8372 403.836 99.8372L404.077 109.795C404.077 109.795 394.52 111.964 388.176 111.964ZM432.841 111.964C415.656 111.964 410.195 102.327 410.195 83.6954C410.195 65.064 415.656 54.624 432.841 54.624C450.027 54.624 455.488 65.064 455.488 83.6954C455.488 102.327 450.027 111.964 432.841 111.964ZM421.598 83.6954C421.598 95.6612 423.847 101.283 432.841 101.283C441.836 101.283 444.084 95.6612 444.084 83.6954C444.084 71.7295 441.836 65.3049 432.841 65.3049C423.847 65.3049 421.598 71.7295 421.598 83.6954ZM464.286 55.5877H481.954L492.795 95.4203L503.637 55.5877H521.144V111H510.062V69.5612H508.857L498.337 108.591H487.254L476.573 69.5612H475.369V111H464.286V55.5877Z" fill="white"/>
</g>
<path d="M67.0911 41.2002V119.631H50.082V166.5H78.4305V41.2002H67.0911Z" fill="black"/>
<path d="M0 0V22.6788H34.0182V111.504H60.4767V22.6788H97.8967V0H0Z" fill="black"/>
<path d="M81.0762 84.8564L138.529 166.311H171.224L113.015 84.4784L163.665 25.8916H130.969L81.0762 84.8564Z" fill="black"/>
<defs>
<filter id="filter0_d_1064_13" x="176.621" y="54.624" width="354.523" height="66.3398" filterUnits="userSpaceOnUse" color-interpolation-filters="sRGB">
<feFlood flood-opacity="0" result="BackgroundImageFix"/>
<feColorMatrix in="SourceAlpha" type="matrix" values="0 0 0 0 0 0 0 0 0 0 0 0 0 0 0 0 0 0 127 0" result="hardAlpha"/>
<feOffset dx="6" dy="5"/>
<feGaussianBlur stdDeviation="2"/>
<feComposite in2="hardAlpha" operator="out"/>
<feColorMatrix type="matrix" values="0 0 0 0 0 0 0 0 0 0 0 0 0 0 0 0 0 0 0.77 0"/>
<feBlend mode="normal" in2="BackgroundImageFix" result="effect1_dropShadow_1064_13"/>
<feBlend mode="normal" in="SourceGraphic" in2="effect1_dropShadow_1064_13" result="shape"/>
</filter>
</defs>
</svg>
